<?xml version="1.0" encoding="UTF_8" standalone="no"?>
<!__ Created with Inkscape (http://www.inkscape.org/) __>

<svg
   width="210mm"
   height="297mm"
   viewBox="0 0 210 297"
   version="1.1"
   id="svg5"
   xml:space="preserve"
   inkscape:export_filename="comida.svg"
   inkscape:export_xdpi="3.870476"
   inkscape:export_ydpi="3.870476"
   xmlns:inkscape="http://www.inkscape.org/namespaces/inkscape"
   xmlns:sodipodi="http://sodipodi.sourceforge.net/DTD/sodipodi_0.dtd"
   xmlns="http://www.w3.org/2000/svg"
   xmlns:svg="http://www.w3.org/2000/svg"><sodipodi:namedview
     id="namedview7"
     pagecolor="#ffffff"
     bordercolor="#000000"
     borderopacity="0.25"
     inkscape:showpageshadow="2"
     inkscape:pageopacity="0.0"
     inkscape:pagecheckerboard="0"
     inkscape:deskcolor="#d1d1d1"
     inkscape:document_units="mm"
     showgrid="false" /><defs
     id="defs2" /><g
     inkscape:label="Capa 1"
     inkscape:groupmode="layer"
     id="layer1"><path
       style="fill:#000000;stroke_width:0.264583"
       d="m 61.361306,121.27929 _4.94738,_0.0235 _3.175,_0.48262 _3.175,_0.48262 _2.66652,_0.67763 _2.66652,_0.67763 _2.74032,_0.95384 _2.74032,_0.95384 _2.40109,_1.12204 _2.40108,_1.12203 _2.37853,_1.40003 _2.37854,_1.40003 _1.71979,_1.21061 _1.71979,_1.21061 _1.9831,_1.60425 _1.98309,_1.60425 _2.26828,_2.24895 _2.26829,_2.24896 _2.09889,_2.645828 _2.09889,_2.64584 _1.43624,_2.24214 _1.43625,_2.24215 _1.1271698,_2.12348 _1.12717,_2.12348 _0.93638,_2.19302 _0.93638,_2.19303 _0.81861,_2.437181 _0.81862,_2.437183 _0.62188,_2.645833 _0.62188,_2.645834 _0.45318,_3.042708 _0.45319,_3.042708 0.004,_4.7625 0.004,_4.7625 0.44554,_3.175 0.44555,_3.175 0.62872,_2.645833 0.62873,_2.645833 0.65354,_1.984375 0.65354,_1.984375 0.83577,_2.116667 0.83576,_2.116666 1.46398,_2.778125 1.4639898,_2.778125 1.46496,_2.248125 1.46497,_2.248125 1.68015,_2.151681 1.68016,_2.151679 2.8964,_2.907136 2.8964,_2.907133 2.20066,_1.7184 2.20066,_1.718402 2.24813,_1.462553 2.24812,_1.462556 2.51354,_1.3381647 2.51355,_1.338164 2.91041,_1.160566 2.91042,_1.160566 2.91042,_0.824878 2.91041,_0.824878 3.04271,_0.568037 3.04271,_0.568033 5.55828,_0.139989 5.55828,_0.139988 3.51188,0.446995 3.51188,0.446995 3.10068,0.758071 3.10067,0.758071 1.98437,0.707448 1.98438,0.707445 2.77813,1.22305 2.778115,1.223047 2.51354,1.4302177 2.51354,1.430219 2.11667,1.485103 2.11667,1.485106 2.24896,1.884381 2.248959,1.884381 2.13291,2.218637 2.13292,2.218637 1.57125,1.982245 1.57125,1.982245 1.66845,2.515672 1.66844,2.515671 1.83025,3.704167 1.83026,3.704166 1.18118,3.571875 1.18119,3.571875 0.65725,3.175 0.65726,3.175 0.28525,2.890224 0.28526,2.890223 v 3.101012 3.101014 l _0.27632,2.740015 _0.27632,2.740011 _0.65937,3.281257 _0.65938,3.281254 _1.20103,3.597912 _1.20102,3.597908 _1.52761,3.175 _1.5276,3.175 _1.38044,2.23103 _1.38042,2.23103 _1.90056,2.53106 _1.90055,2.531048 _2.73181,2.82941 _2.7318,2.8294 _2.765689,2.1981 _2.76569,2.19809 _2.59479,1.63608 _2.59478,1.63609 _2.88793,1.44443 _2.887925,1.44442 _3.3073,1.18802 _3.30729,1.18802 _2.91042,0.68389 _2.91041,0.68389 _3.12241,0.40539 _3.1224,0.40539 _4.94739,_0.0235 z m 0.1323,_4.50878 4.28593,0.0343 3.1224,_0.40605 3.12241,_0.40605 2.2172,_0.5232 2.21721,_0.5232 2.80988,_0.95006 2.80987,_0.95007 3.43959,_1.65341 3.439575,_1.65342 2.77813,_1.85653 2.77812,_1.85653 2.54254,_2.138 2.54254,_2.138 1.794469,_1.931598 1.79446,_1.93159 1.8148,_2.3414 1.8148,_2.34139 1.50098,_2.42111 1.50099,_2.4211 1.1788,_2.51354 1.17881,_2.51354 0.91205,_2.513543 0.91206,_2.513542 0.77282,_3.081726 0.77282,_3.081729 0.39759,_3.398943 0.3976,_3.398941 v _2.79994 _2.79994 l _0.28451,_2.890223 _0.28452,_2.890224 _0.64947,_3.042708 _0.64947,_3.042708 _1.07348,_3.175 _1.07348,_3.175 _1.56268,_3.206999 _1.56268,_3.206998 _2.10695,_3.143001 _2.10694,_3.143001 _2.33125,_2.637335 _2.33124,_2.637335 _2.508859,_2.215166 _2.50885,_2.215168 _3.175,_2.134611 _3.175,_2.13461 _3.439575,_1.660081 _3.43959,_1.66008 _3.175,_1.049102 _3.175,_1.0490997 _2.77812,_0.549521 _2.77813,_0.549518 _2.24202,_0.271375 _2.24201,_0.271373 h _4.02829 _4.02828 l _2.99012,0.394719 _2.99011,0.394718 _2.64583,0.646425 _2.64584,0.646425 _2.77812,0.9654987 _2.77813,0.965499 _2.64583,1.277408 _2.64583,1.277406 _2.38125,1.49929 _2.38125,1.499288 _1.98438,1.48612 _1.98437,1.486122 _2.87295,2.792518 _2.87295,2.792521 _1.60594,1.984375 _1.60595,1.984375 _1.81695,2.778125 _1.81695,2.778125 _1.41956,2.910416 _1.41955,2.910417 _0.95662,2.75744 _0.9566198,2.757437 _0.63898,2.534229 _0.63898,2.534227 _0.44308,3.042708 _0.44308,3.042708 0.13431,5.688542 0.13431,5.688541 0.40222,2.116667 0.40223,2.116666 0.56705,2.248959 0.56705,2.248958 0.5456998,1.5875 0.54569,1.5875 0.91732,2.248958 0.91732,2.24896 1.02211,1.89182 1.02212,1.89183 0.85584,1.41546 0.85584,1.41547 1.85108,2.51354 1.85107,2.51354 3.45845,3.458448 3.45845,3.45845 2.51354,1.86193 2.51354,1.86194 2.77812,1.61435 2.77813,1.61435 2.82294,1.18195 2.82295,1.18195 2.50057,0.80101 2.50058,0.801 2.70003,0.55023 2.70003,0.55023 1.89833,0.2212 1.89832,0.22119 z m _13.604,_17.959838 _3.11735,_0.002 _1.1015,_0.66025 _1.10151,_0.66025 _0.57229,_1.18221 _0.5723,_1.1822 0.30869,_19.123275 0.30868,_19.123267 _1.28072,_1.357239 _1.28071,_1.357238 _0.87863,_1.464649 _0.87862,_1.464646 _0.64108,_1.843399 _0.64107,_1.8434 _0.2959,_2.081591 _0.2959,_2.081588 0.15284,_2.513542 0.15283,_2.513541 0.40862,_1.5875 0.40862,_1.5875 1.09978,_2.248958 1.09979,_2.248959 1.65752,_1.659956 1.65753,_1.659958 1.53954,_0.721292 1.53954,_0.721415 h 2.51354 2.51355 l 1.51475,0.743834 1.51475,0.743833 1.53181,1.508215 1.53182,1.508215 1.10739,2.128549 1.10739,2.128547 0.59433,2.101696 0.59433,2.101694 _0.005,3.307291 _0.005,3.307292 _0.5615,2.162344 _0.56149,2.162344 _0.83871,1.674114 _0.83872,1.674114 _0.96136,1.189755 _0.96137,1.189754 _0.62087,0.538364 _0.62088,0.538366 0.0398,6.738548 0.0398,6.738546 0.22127,12.264958 0.22126,12.26496 _0.2457,0.88985 _0.2457,0.88984 _0.70508,0.83794 _0.70508,0.83795 _0.86375,0.36089 _0.86375,0.3609 _3.11736,_0.002 z m 0.37277,_3.9703 1.90261,0.004 0.16329,_0.2642 0.16328,_0.2642 _0.31905,_19.898512 _0.31904,_19.89851 0.48773,_0.276352 0.48774,_0.276349 1.27754,_1.166673 1.27754,_1.166669 0.92332,_1.876039 0.92333,_1.876036 0.41934,_1.984375 0.41933,_1.984375 _0.13225,_2.645833 _0.13226,_2.645833 _0.59223,_1.784914 _0.59224,_1.784916 _1.08759,_1.631116 _1.08759,_1.631119 _1.13405,_0.805371 _1.13405,_0.80537 _1.69704,_0.108059 _1.69704,_0.108061 _1.2031,0.582411 _1.2031,0.582409 _0.95056,1.10122 _0.95057,1.101219 _0.75103,1.476365 _0.75103,1.476367 _0.44391,1.698633 _0.44391,1.698635 0.0226,2.645833 0.0226,2.645834 0.41197,1.570939 0.41197,1.57094 0.51635,1.167286 0.51635,1.167286 0.93808,1.277927 0.93809,1.277927 1.21037,0.746347 1.21037,0.746347 _0.15841,6.482292 _0.15842,6.482291 _0.1748,13.453348 _0.17479,13.453346 0.37083,0.23479 0.37084,0.23479 1.90261,0.004 z M 38.920196,41.92776 h 0.13229 l 0.16352,_0.264583 0.16352,_0.264584 h _0.13229 _0.13229 l _0.16352,0.264584 _0.16352,0.264583 z m 37.1878,56.875062 _3.02532,_0.0103 _0.80687,_0.35145 _0.80686,_0.35145 _0.70433,_0.83703 _0.70431,_0.83704 _0.23763,_0.86061 _0.23763,_0.86062 0.21007,_12.42408 0.21006,_12.424081 0.0592,_6.950054 0.0591,_6.950053 _0.1079,_0.06381 _0.1079,_0.06381 _1.27017,_0.639189 _1.27017,_0.639185 _0.68912,_0.816023 _0.68911,_0.81602 _0.61782,_1.322917 _0.61782,_1.322916 _0.003,_11.840104 _0.002,_11.840104 h 1.98438 1.98437 v 11.287691 11.287691 l 0.65135,1.111438 0.65134,1.111435 0.73772,0.284914 0.73772,0.284914 1.38906,0.173077 1.38906,0.17308 0.001,3.745484 10e_4,3.745483 _0.29327,17.297461 _0.29327,17.297458 0.35845,0.2329 0.35845,0.2329 1.98438,_0.0679 1.98437,_0.0679 v _7.9375 _7.937499 l _0.20742,_13.362493 _0.20742,_13.362495 1.53034,_0.08198 1.53034,_0.08197 0.76382,_0.446154 0.76383,_0.446156 0.49295,_0.921914 0.49294,_0.921915 V 37.896992 26.581927 h 2.12933 2.129315 l _0.0788,11.840104 _0.0788,11.840104 _0.5655,1.22301 _0.5655,1.223012 _0.967195,1.070579 _0.96721,1.07058 _1.20108,0.484534 _1.20107,0.484535 0.22024,14.816666 0.22024,14.816661 v 5.15938 5.15937 l _0.66146,0.9945 _0.66146,0.99449 _1.07572,0.52686 _1.07573,0.52686 _3.02531,_0.0103 z m _3.04728,_55.94902 h _2.00639 l _0.1103,_0.110244 _0.11031,_0.110242 v _8.025695 _8.025694 h 2.11667 2.11666 l 3e_5,8.135937 3e_5,8.135938 z m 6.28351,_0.04037 _1.94054,0.04037 _0.10998,_0.110244 _0.10999,_0.110242 v _8.025695 _8.025694 h 2.12049 2.12049 l _0.07,8.09557 _0.07,8.095572 z"
       id="path396"
       sodipodi:nodetypes="cccccccccccccccccccccccccccccccccccccccccccccccccccccccccccccccccccccccccccccccccccccccccccccccccccccccccccccccccccccccccccccccccccccccccccccccccccccccccccccccccccccccccccccccccccccccccccccccccccccccccccccccccccccccccccccccccccccccccccccccccccccccccccccccccccccccccccccccccccccccccccccccccccccccccccccccccccccccccccccccccccccccccccccccccccccccccccccccccccccccccccccccccccccccccccccccccccccccccccccccccccccccccccccccccccccccccccccccccccccccccccccc" /></g></svg>
