<svg xmlns="http://www.w3.org/2000/svg" viewBox="0 0 512 512"><!__!Font Awesome Free 6.5.2 by @fontawesome _ https://fontawesome.com License _ https://fontawesome.com/license/free Copyright 2024 Fonticons, Inc.__><path d="M164.9 24.6c_7.7_18.6_28_28.5_47.4_23.2l_88 24C12.1 30.2 0 46 0 64C0 311.4 200.6 512 448 512c18 0 33.8_12.1 38.6_29.5l24_88c5.3_19.4_4.6_39.7_23.2_47.4l_96_40c_16.3_6.8_35.2_2.1_46.3 11.6L304.7 368C234.3 334.7 177.3 277.7 144 207.3L193.3 167c13.7_11.2 18.4_30 11.6_46.3l_40_96z"/></svg>